<?xml version="1.0" encoding="UTF-8" standalone="no"?><!-- Generator: Gravit.io --><svg xmlns="http://www.w3.org/2000/svg" xmlns:xlink="http://www.w3.org/1999/xlink" style="isolation:isolate" viewBox="0 0 40 60" width="40pt" height="60pt"><defs><clipPath id="_clipPath_FLjxMx0tuw9mscKC49GO3H0SuVkGP2le"><rect width="40" height="60"/></clipPath></defs><g clip-path="url(#_clipPath_FLjxMx0tuw9mscKC49GO3H0SuVkGP2le)"><g><path d=" M 10.559 49.102 C 8.058 48.558 6.179 47.092 5.525 45.172 C 5.069 43.834 5.134 41.663 5.717 38.729 C 5.998 37.32 6.227 35.638 6.227 34.992 C 6.226 32.843 5.238 31.678 3.28 31.515 L 2.15 31.421 L 2.15 30.039 L 2.15 28.656 L 3.22 28.511 C 4.782 28.3 5.384 27.917 5.865 26.83 C 6.218 26.032 6.263 25.635 6.157 24.246 C 6.088 23.343 5.847 21.733 5.622 20.668 C 5.051 17.962 5.074 15.764 5.69 14.442 C 6.596 12.496 8.832 11.059 11.43 10.754 L 12.547 10.623 L 12.547 12.078 L 12.547 13.533 L 11.795 13.533 C 10.772 13.533 9.34 14.262 8.974 14.971 C 8.622 15.65 8.596 16.626 8.882 18.323 C 9.335 21.007 9.487 23.581 9.273 24.923 C 9.027 26.459 8.131 28.273 7.147 29.227 L 6.465 29.888 L 7.398 31.034 C 8.548 32.446 8.995 33.431 9.272 35.161 C 9.49 36.53 9.321 39.37 8.884 41.641 C 8.275 44.811 8.978 46.063 11.578 46.441 L 12.547 46.582 L 12.547 47.997 C 12.547 49.61 12.645 49.555 10.559 49.102 L 10.559 49.102 Z " fill="rgb(255,255,255)"/><path d=" M 27.453 47.981 L 27.453 46.576 L 28.638 46.332 C 29.945 46.062 30.98 45.255 31.214 44.324 C 31.288 44.031 31.149 42.496 30.906 40.913 C 30.113 35.753 30.553 33.09 32.556 30.917 L 33.412 29.988 L 32.77 29.257 C 30.471 26.639 30.072 24.315 30.948 18.642 C 31.389 15.784 31.389 15.756 30.998 15.075 C 30.538 14.273 29.101 13.471 28.124 13.471 L 27.453 13.471 L 27.453 12.044 C 27.453 10.419 27.42 10.441 29.329 10.846 C 31.62 11.332 33.261 12.495 34.112 14.235 C 34.601 15.233 34.675 15.622 34.661 17.13 C 34.652 18.089 34.454 19.836 34.221 21.013 C 33.355 25.384 33.432 26.547 34.663 27.677 C 35.235 28.202 35.611 28.355 36.611 28.468 L 37.85 28.608 L 37.85 30.009 L 37.85 31.41 L 36.882 31.41 C 35.638 31.411 34.609 31.936 34.086 32.837 C 33.536 33.783 33.57 35.846 34.186 38.85 C 34.71 41.406 34.794 43.738 34.41 45.05 C 34.005 46.433 32.203 48.11 30.511 48.677 C 29.783 48.922 28.796 49.181 28.32 49.253 L 27.453 49.385 L 27.453 47.981 Z " fill="rgb(255,255,255)"/><path d=" M 15.614 45.679 C 15.024 44.928 15.11 43.635 15.835 42.367 C 16.371 41.428 18.613 38.351 20.232 36.333 L 20.886 35.519 L 19.845 32.499 C 18.676 29.112 18.683 29.047 20.223 28.817 L 21.072 28.691 L 22.02 30.627 C 22.542 31.692 23.043 32.563 23.134 32.563 C 23.225 32.563 24.16 31.548 25.211 30.309 C 27.036 28.155 27.15 28.06 27.768 28.175 C 28.141 28.244 28.472 28.201 28.551 28.074 C 28.734 27.777 29.262 28.217 29.262 28.668 C 29.262 28.853 28.999 29.323 28.678 29.713 C 27.368 31.306 24.573 35.071 24.573 35.244 C 24.573 35.346 25.137 36.662 25.825 38.167 L 27.077 40.904 L 26.697 41.473 C 26.488 41.786 26.314 42.124 26.311 42.224 C 26.308 42.324 26.151 42.503 25.961 42.623 C 25.481 42.926 25.125 42.556 23.656 40.223 C 22.983 39.155 22.366 38.278 22.285 38.276 C 22.104 38.27 20.094 41.241 18.541 43.812 C 17.171 46.079 17.421 45.788 16.654 46.008 C 16.102 46.167 15.964 46.123 15.614 45.679 L 15.614 45.679 Z " fill="rgb(255,255,255)"/><path d=" M 15.755 31.47 C 14.512 29.247 12.277 26.022 11.376 25.149 C 10.918 24.706 10.543 24.239 10.543 24.112 C 10.543 23.764 11.478 23.407 12.387 23.407 C 13.368 23.407 14.407 24.261 15.334 25.829 C 15.67 26.399 16.002 26.866 16.071 26.869 C 16.14 26.871 16.539 25.914 16.956 24.743 C 17.849 22.235 20.205 17.36 21.13 16.104 C 21.924 15.027 23.112 14.448 24.541 14.442 C 26.41 14.434 26.415 14.517 24.66 16.347 C 21.981 19.139 20.752 21.438 18.158 28.503 C 17.438 30.465 16.777 32.247 16.689 32.463 C 16.556 32.79 16.401 32.625 15.755 31.47 L 15.755 31.47 Z " fill="rgb(255,255,255)"/></g></g></svg>